<svg xmlns="http://www.w3.org/2000/svg" xmlns:xlink="http://www.w3.org/1999/xlink" width="640" height="385.65"><rect width="640" height="385.65" rx="5" ry="5" class="a"/><svg y="0%" x="0%"><circle cx="20" cy="20" r="6" fill="#ff5f58"/><circle cx="40" cy="20" r="6" fill="#ffbd2e"/><circle cx="60" cy="20" r="6" fill="#18c132"/></svg><svg height="325.65" viewBox="0 0 60 32.565" width="600" x="15" xmlns="http://www.w3.org/2000/svg" xmlns:xlink="http://www.w3.org/1999/xlink" y="50"><style>@keyframes m{0%{transform:translateX(0)}.1%{transform:translateX(-60px)}13.1%{transform:translateX(-120px)}13.7%{transform:translateX(-180px)}14.8%{transform:translateX(-240px)}15.8%{transform:translateX(-300px)}17.5%{transform:translateX(-360px)}18.5%{transform:translateX(-420px)}19.6%{transform:translateX(-480px)}20.2%{transform:translateX(-540px)}22.6%{transform:translateX(-600px)}31.8%{transform:translateX(-660px)}36.2%{transform:translateX(-840px)}44.6%{transform:translateX(-1080px)}46.1%{transform:translateX(-1320px)}47.2%{transform:translateX(-1500px)}51.3%{transform:translateX(-1740px)}52.3%{transform:translateX(-1980px)}56%{transform:translateX(-2160px)}63.5%{transform:translateX(-2400px)}64.8%{transform:translateX(-2520px)}77.8%{transform:translateX(-2640px)}81%{transform:translateX(-2760px)}90.7%{transform:translateX(-2880px)}to{transform:translateX(-3000px)}}.a{fill:#282d35}.f{fill:#b9c0cb}.g,.h,.i,.j{fill:#dbab79;font-weight:700}.h,.i,.j{fill:#d290e4}.i,.j{fill:#e88388}.j{fill:#a8cc8c}</style><g font-size="1.67" font-family="Monaco,Consolas,Menlo,'Bitstream Vera Sans Mono','Powerline Symbols',monospace"><defs><symbol id="1"><text y="1.67" class="f">bash-3.2$</text></symbol><symbol id="2"><text y="1.67" class="f">bash-3.2$</text><text x="10.02" y="1.67" class="f">git</text></symbol><symbol id="3"><text y="1.67" class="f">bash-3.2$</text><text x="10.02" y="1.67" class="f">git</text><text x="14.028" y="1.67" class="f">ishow</text></symbol><symbol id="4"><text y="1.67" class="f">?</text><text x="2.004" y="1.67" class="f">Select</text><text x="9.018" y="1.67" class="f">stashed</text><text x="17.034" y="1.67" class="f">item</text><text x="22.044" y="1.67" class="f">to</text><text x="25.05" y="1.67" class="f">show:</text><text x="31.062" y="1.67" class="f">(Use</text><text x="36.072" y="1.67" class="f">arrow</text><text x="42.084" y="1.67" class="f">keys)</text></symbol><symbol id="5"><text y="1.67" class="f">❯</text><text x="2.004" y="1.67" class="f">stash@{0}:</text><text x="13.026" y="1.67" class="f">WIP</text><text x="17.034" y="1.67" class="f">on</text><text x="20.04" y="1.67" class="f">master:</text><text x="28.056" y="1.67" class="f">8798500</text><text x="36.072" y="1.67" class="f">Add</text><text x="40.08" y="1.67" class="f">space</text><text x="46.092" y="1.67" class="f">before</text><text x="53.106" y="1.67" class="f">...</text></symbol><symbol id="6"><text x="2.004" y="1.67" class="f">stash@{1}:</text><text x="13.026" y="1.67" class="f">WIP</text><text x="17.034" y="1.67" class="f">on</text><text x="20.04" y="1.67" class="f">master:</text><text x="28.056" y="1.67" class="f">095d1ba</text><text x="36.072" y="1.67" class="f">Removed</text><text x="44.088" y="1.67" class="f">reference...</text></symbol><symbol id="7"><text x="2.004" y="1.67" class="f">stash@{2}:</text><text x="13.026" y="1.67" class="f">WIP</text><text x="17.034" y="1.67" class="f">on</text><text x="20.04" y="1.67" class="f">master:</text><text x="28.056" y="1.67" class="f">71b9184</text><text x="36.072" y="1.67" class="f">Added</text><text x="42.084" y="1.67" class="f">extract-pat...</text></symbol><symbol id="8"><text x="2.004" y="1.67" class="f">stash@{3}:</text><text x="13.026" y="1.67" class="f">On</text><text x="16.032" y="1.67" class="f">replace-ttys:</text><text x="30.06" y="1.67" class="f">remove-stdin-tty</text></symbol><symbol id="9"><text x="2.004" y="1.67" class="f">stash@{4}:</text><text x="13.026" y="1.67" class="f">WIP</text><text x="17.034" y="1.67" class="f">on</text><text x="20.04" y="1.67" class="f">update-tempfile:</text><text x="37.074" y="1.67" class="f">b418ef8</text><text x="45.09" y="1.67" class="f">Updated</text><text x="53.106" y="1.67" class="f">...</text></symbol><symbol id="10"><text x="2.004" y="1.67" class="f">stash@{5}:</text><text x="13.026" y="1.67" class="f">WIP</text><text x="17.034" y="1.67" class="f">on</text><text x="20.04" y="1.67" class="f">master:</text><text x="28.056" y="1.67" class="f">75ccf09</text><text x="36.072" y="1.67" class="f">1.1.0</text></symbol><symbol id="11"><text x="2.004" y="1.67" class="f">stash@{6}:</text><text x="13.026" y="1.67" class="f">WIP</text><text x="17.034" y="1.67" class="f">on</text><text x="20.04" y="1.67" class="f">update-ava:</text><text x="32.064" y="1.67" class="f">1cc2077</text><text x="40.08" y="1.67" class="f">Update</text><text x="47.094" y="1.67" class="f">ava</text></symbol><symbol id="12"><text y="1.67" class="f">?</text><text x="2.004" y="1.67" class="f">Select</text><text x="9.018" y="1.67" class="f">stashed</text><text x="17.034" y="1.67" class="f">item</text><text x="22.044" y="1.67" class="f">to</text><text x="25.05" y="1.67" class="f">show:</text></symbol><symbol id="13"><text x="2.004" y="1.67" class="f">stash@{0}:</text><text x="13.026" y="1.67" class="f">WIP</text><text x="17.034" y="1.67" class="f">on</text><text x="20.04" y="1.67" class="f">master:</text><text x="28.056" y="1.67" class="f">8798500</text><text x="36.072" y="1.67" class="f">Add</text><text x="40.08" y="1.67" class="f">space</text><text x="46.092" y="1.67" class="f">before</text><text x="53.106" y="1.67" class="f">...</text></symbol><symbol id="14"><text y="1.67" class="f">❯</text><text x="2.004" y="1.67" class="f">stash@{1}:</text><text x="13.026" y="1.67" class="f">WIP</text><text x="17.034" y="1.67" class="f">on</text><text x="20.04" y="1.67" class="f">master:</text><text x="28.056" y="1.67" class="f">095d1ba</text><text x="36.072" y="1.67" class="f">Removed</text><text x="44.088" y="1.67" class="f">reference...</text></symbol><symbol id="15"><text y="1.67" class="f">❯</text><text x="2.004" y="1.67" class="f">stash@{2}:</text><text x="13.026" y="1.67" class="f">WIP</text><text x="17.034" y="1.67" class="f">on</text><text x="20.04" y="1.67" class="f">master:</text><text x="28.056" y="1.67" class="f">71b9184</text><text x="36.072" y="1.67" class="f">Added</text><text x="42.084" y="1.67" class="f">extract-pat...</text></symbol><symbol id="16"><text y="1.67" class="f">❯</text><text x="2.004" y="1.67" class="f">stash@{3}:</text><text x="13.026" y="1.67" class="f">On</text><text x="16.032" y="1.67" class="f">replace-ttys:</text><text x="30.06" y="1.67" class="f">remove-stdin-tty</text></symbol><symbol id="17"><text y="1.67" class="f">?</text><text x="2.004" y="1.67" class="f">Select</text><text x="9.018" y="1.67" class="f">stashed</text><text x="17.034" y="1.67" class="f">item</text><text x="22.044" y="1.67" class="f">to</text><text x="25.05" y="1.67" class="f">show:</text><text x="31.062" y="1.67" class="f">stash@{0}:</text><text x="42.084" y="1.67" class="f">WIP</text><text x="46.092" y="1.67" class="f">on</text><text x="49.098" y="1.67" class="f">master:</text><text x="57.114" y="1.67" class="f">879</text></symbol><symbol id="18"><text y="1.67" class="f">8500</text><text x="5.01" y="1.67" class="f">Add</text><text x="9.018" y="1.67" class="f">space</text><text x="15.03" y="1.67" class="f">before</text><text x="22.044" y="1.67" class="f">...</text></symbol><symbol id="19"><text y="1.67" class="g">diff</text><text x="5.01" y="1.67" class="g">--git</text><text x="11.022" y="1.67" class="g">a/README.md</text><text x="23.046" y="1.67" class="g">b/README.md</text></symbol><symbol id="20"><text y="1.67" class="g">index</text><text x="6.012" y="1.67" class="g">fb09267..9076aab</text><text x="23.046" y="1.67" class="g">100644</text></symbol><symbol id="21"><text y="1.67" class="g">---</text><text x="4.008" y="1.67" class="g">a/README.md</text></symbol><symbol id="22"><text y="1.67" class="g">+++</text><text x="4.008" y="1.67" class="g">b/README.md</text></symbol><symbol id="23"><text y="1.67" class="h">@@</text><text x="3.006" y="1.67" class="h">-118,7</text><text x="10.02" y="1.67" class="h">+118,15</text><text x="18.036" y="1.67" class="h">@@</text><text x="21.042" y="1.67" class="f">The</text><text x="25.05" y="1.67" class="f">default</text><text x="33.066" y="1.67" class="f">behavior</text><text x="42.084" y="1.67" class="f">of</text><text x="45.09" y="1.67" class="f">**ipt**</text><text x="53.106" y="1.67" class="f">is</text><text x="56.112" y="1.67" class="f">to</text><text x="59.118" y="1.67" class="f">a</text></symbol><symbol id="24"><text y="1.67" class="f">llow</text><text x="5.01" y="1.67" class="f">for</text><text x="9.018" y="1.67" class="f">the</text><text x="13.026" y="1.67" class="f">selection</text><text x="23.046" y="1.67" class="f">of</text><text x="26.052" y="1.67" class="f">one</text><text x="30.06" y="1.67" class="f">item</text><text x="35.07" y="1.67" class="f">from</text><text x="40.08" y="1.67" class="f">t</text></symbol><symbol id="25"><text x="1.002" y="1.67" class="f">Here</text><text x="6.012" y="1.67" class="f">we</text><text x="9.018" y="1.67" class="f">get</text><text x="13.026" y="1.67" class="f">a</text><text x="15.03" y="1.67" class="f">simple</text><text x="22.044" y="1.67" class="f">list</text><text x="27.054" y="1.67" class="f">of</text><text x="30.06" y="1.67" class="f">branchs</text><text x="38.076" y="1.67" class="f">`git</text><text x="43.086" y="1.67" class="f">branch</text><text x="50.1" y="1.67" class="f">-a`,</text><text x="55.11" y="1.67" class="f">pipe</text></symbol><symbol id="26"><text y="1.67" class="f">into</text><text x="5.01" y="1.67" class="f">`ipt`</text><text x="11.022" y="1.67" class="f">and</text><text x="15.03" y="1.67" class="f">pipe</text><text x="20.04" y="1.67" class="f">the</text><text x="24.048" y="1.67" class="f">selected</text><text x="33.066" y="1.67" class="f">item</text><text x="38.076" y="1.67" class="f">value</text><text x="44.088" y="1.67" class="f">to</text><text x="47.094" y="1.67" class="f">`git</text><text x="52.104" y="1.67" class="f">checkout</text></symbol><symbol id="27"><text y="1.67" class="f">`</text><text x="2.004" y="1.67" class="f">to</text><text x="5.01" y="1.67" class="f">checkout</text><text x="14.028" y="1.67" class="f">into</text><text x="19.038" y="1.67" class="f">the</text><text x="23.046" y="1.67" class="f">selected</text><text x="32.064" y="1.67" class="f">branch.</text><text x="40.08" y="1.67" class="f">`xargs`</text><text x="48.096" y="1.67" class="f">is</text><text x="51.102" y="1.67" class="f">needed</text><text x="58.116" y="1.67" class="f">to</text></symbol><symbol id="28"><text x="1.002" y="1.67" class="f">get</text><text x="5.01" y="1.67" class="f">the</text><text x="9.018" y="1.67" class="f">data</text><text x="14.028" y="1.67" class="f">from</text><text x="19.038" y="1.67" class="f">standard</text><text x="28.056" y="1.67" class="f">input</text><text x="34.068" y="1.67" class="f">and</text><text x="38.076" y="1.67" class="f">read</text><text x="43.086" y="1.67" class="f">it</text><text x="46.092" y="1.67" class="f">as</text><text x="49.098" y="1.67" class="f">an</text><text x="52.104" y="1.67" class="f">argument</text></symbol><symbol id="29"><text y="1.67" class="f">.</text></symbol><symbol id="30"><text y="1.67" class="i">-![`git</text><text x="8.016" y="1.67" class="i">branch</text><text x="15.03" y="1.67" class="i">-a</text><text x="18.036" y="1.67" class="i">|</text><text x="20.04" y="1.67" class="i">ipt</text><text x="24.048" y="1.67" class="i">|</text><text x="26.052" y="1.67" class="i">xargs</text><text x="32.064" y="1.67" class="i">git</text><text x="36.072" y="1.67" class="i">checkout`</text><text x="46.092" y="1.67" class="i">selects</text><text x="54.108" y="1.67" class="i">a</text><text x="56.112" y="1.67" class="i">bran</text></symbol><symbol id="31"><text y="1.67" class="f">:</text></symbol><symbol id="32"><text y="1.67" class="i">ch</text><text x="3.006" y="1.67" class="i">name</text><text x="8.016" y="1.67" class="i">from</text><text x="13.026" y="1.67" class="i">menu</text><text x="18.036" y="1.67" class="i">and</text><text x="22.044" y="1.67" class="i">that</text><text x="27.054" y="1.67" class="i">branch</text><text x="34.068" y="1.67" class="i">gets</text><text x="39.078" y="1.67" class="i">checked</text><text x="47.094" y="1.67" class="i">out</text><text x="51.102" y="1.67" class="i">by</text><text x="54.108" y="1.67" class="i">git](h</text></symbol><symbol id="33"><text y="1.67" class="i">ttps://user-images.githubusercontent.com/220900/38227950-bcc</text></symbol><symbol id="34"><text y="1.67" class="i">70b18-36ce-11e8-9da0-709d8b8a1c51.png)</text></symbol><symbol id="35"><text y="1.67" class="j">+&lt;br</text><text x="5.01" y="1.67" class="j">/&gt;</text></symbol><symbol id="36"><text y="1.67" class="j">+</text></symbol><symbol id="37"><text y="1.67" class="j">+&lt;p</text><text x="4.008" y="1.67" class="j">align=&quot;center&quot;&gt;</text></symbol><symbol id="38"><text y="1.67" class="j">+&lt;img</text><text x="6.012" y="1.67" class="j">alt=&quot;git</text><text x="15.03" y="1.67" class="j">branch</text><text x="22.044" y="1.67" class="j">-a</text><text x="25.05" y="1.67" class="j">|</text><text x="27.054" y="1.67" class="j">ipt</text><text x="31.062" y="1.67" class="j">|</text><text x="33.066" y="1.67" class="j">xargs</text><text x="39.078" y="1.67" class="j">git</text><text x="43.086" y="1.67" class="j">checkout</text><text x="52.104" y="1.67" class="j">#</text><text x="54.108" y="1.67" class="j">select</text></symbol><symbol id="39"><text y="1.67" class="j">s</text><text x="2.004" y="1.67" class="j">a</text><text x="4.008" y="1.67" class="j">branch</text><text x="11.022" y="1.67" class="j">name</text><text x="16.032" y="1.67" class="j">from</text><text x="21.042" y="1.67" class="j">menu</text><text x="26.052" y="1.67" class="j">and</text><text x="30.06" y="1.67" class="j">that</text><text x="35.07" y="1.67" class="j">branch</text><text x="42.084" y="1.67" class="j">gets</text><text x="47.094" y="1.67" class="j">checked</text><text x="55.11" y="1.67" class="j">out</text><text x="59.118" y="1.67" class="j">b</text></symbol><symbol id="40"><text y="1.67" class="j">y</text><text x="2.004" y="1.67" class="j">git&quot;</text><text x="7.014" y="1.67" class="j">width=&quot;600&quot;</text><text x="19.038" y="1.67" class="j">src=&quot;https://cdn.rawgit.com/ruyadorno/ipt</text></symbol><symbol id="41"><text y="1.67" class="j">/master/demo.svg&quot;</text><text x="18.036" y="1.67" class="j">/&gt;</text></symbol><symbol id="42"><text y="1.67" class="j">+&lt;/p&gt;</text></symbol><symbol id="43"><text y="1.67" class="j">+&lt;br/&gt;</text></symbol><symbol id="a"><path fill="transparent" d="M0 0h60v16H0z"/></symbol><symbol id="b"><path fill="#6f7683" d="M0 0h1.102v2.171H0z"/></symbol></defs><path class="a" d="M0 0h60v32.565H0z"/><g style="animation-duration:11.53382s;animation-iteration-count:infinite;animation-name:m;animation-timing-function:steps(1,end)"><svg width="3060"><svg><use xlink:href="#a"/><use xlink:href="#b" x="-.004"/></svg><svg x="60"><use xlink:href="#a"/><use xlink:href="#b" x="9.996"/><use xlink:href="#1"/></svg><svg x="120"><use xlink:href="#a"/><use xlink:href="#b" x="10.996"/><text y="1.67" class="f">bash-3.2$</text><text x="10.02" y="1.67" class="f">g</text></svg><svg x="180"><use xlink:href="#a"/><use xlink:href="#b" x="11.996"/><text y="1.67" class="f">bash-3.2$</text><text x="10.02" y="1.67" class="f">gi</text></svg><svg x="240"><use xlink:href="#a"/><use xlink:href="#b" x="12.996"/><use xlink:href="#2"/></svg><svg x="300"><use xlink:href="#a"/><use xlink:href="#b" x="13.996"/><use xlink:href="#2"/></svg><svg x="360"><use xlink:href="#a"/><use xlink:href="#b" x="14.996"/><text y="1.67" class="f">bash-3.2$</text><text x="10.02" y="1.67" class="f">git</text><text x="14.028" y="1.67" class="f">i</text></svg><svg x="420"><use xlink:href="#a"/><use xlink:href="#b" x="15.996"/><text y="1.67" class="f">bash-3.2$</text><text x="10.02" y="1.67" class="f">git</text><text x="14.028" y="1.67" class="f">is</text></svg><svg x="480"><use xlink:href="#a"/><use xlink:href="#b" x="16.996"/><text y="1.67" class="f">bash-3.2$</text><text x="10.02" y="1.67" class="f">git</text><text x="14.028" y="1.67" class="f">ish</text></svg><svg x="540"><use xlink:href="#a"/><use xlink:href="#b" x="17.996"/><text y="1.67" class="f">bash-3.2$</text><text x="10.02" y="1.67" class="f">git</text><text x="14.028" y="1.67" class="f">isho</text></svg><svg x="600"><use xlink:href="#a"/><use xlink:href="#b" x="18.996"/><use xlink:href="#3"/></svg><svg x="660"><use xlink:href="#a"/><use xlink:href="#b" x="-.004" y="2.146"/><use xlink:href="#3"/></svg><svg x="720"><use xlink:href="#a"/><use xlink:href="#b" x="50.996" y="17.343"/><use xlink:href="#3"/><use xlink:href="#4" y="2.171"/><use xlink:href="#5" y="4.342"/><use xlink:href="#6" y="6.513"/><use xlink:href="#7" y="8.684"/><use xlink:href="#8" y="10.855"/><use xlink:href="#9" y="13.026"/><use xlink:href="#10" y="15.197"/><use xlink:href="#11" y="17.368"/></svg><svg x="780"><use xlink:href="#a"/><use xlink:href="#b" x="-.004" y="17.343"/><use xlink:href="#3"/><use xlink:href="#4" y="2.171"/><use xlink:href="#5" y="4.342"/><use xlink:href="#6" y="6.513"/><use xlink:href="#7" y="8.684"/><use xlink:href="#8" y="10.855"/><use xlink:href="#9" y="13.026"/><use xlink:href="#10" y="15.197"/><use xlink:href="#11" y="17.368"/></svg><svg x="840"><use xlink:href="#a"/><use xlink:href="#b" x="50.996" y="17.343"/><use xlink:href="#3"/><use xlink:href="#4" y="2.171"/><use xlink:href="#5" y="4.342"/><use xlink:href="#6" y="6.513"/><use xlink:href="#7" y="8.684"/><use xlink:href="#8" y="10.855"/><use xlink:href="#9" y="13.026"/><use xlink:href="#10" y="15.197"/><use xlink:href="#11" y="17.368"/></svg><svg x="900"><use xlink:href="#a"/><use xlink:href="#b" x="-.004" y="2.146"/><use xlink:href="#3"/></svg><svg x="960"><use xlink:href="#a"/><use xlink:href="#b" x="50.996" y="17.343"/><use xlink:href="#3"/><use xlink:href="#12" y="2.171"/><use xlink:href="#13" y="4.342"/><use xlink:href="#14" y="6.513"/><use xlink:href="#7" y="8.684"/><use xlink:href="#8" y="10.855"/><use xlink:href="#9" y="13.026"/><use xlink:href="#10" y="15.197"/><use xlink:href="#11" y="17.368"/></svg><svg x="1020"><use xlink:href="#a"/><use xlink:href="#b" x="-.004" y="17.343"/><use xlink:href="#3"/><use xlink:href="#12" y="2.171"/><use xlink:href="#13" y="4.342"/><use xlink:href="#14" y="6.513"/><use xlink:href="#7" y="8.684"/><use xlink:href="#8" y="10.855"/><use xlink:href="#9" y="13.026"/><use xlink:href="#10" y="15.197"/><use xlink:href="#11" y="17.368"/></svg><svg x="1080"><use xlink:href="#a"/><use xlink:href="#b" x="50.996" y="17.343"/><use xlink:href="#3"/><use xlink:href="#12" y="2.171"/><use xlink:href="#13" y="4.342"/><use xlink:href="#14" y="6.513"/><use xlink:href="#7" y="8.684"/><use xlink:href="#8" y="10.855"/><use xlink:href="#9" y="13.026"/><use xlink:href="#10" y="15.197"/><use xlink:href="#11" y="17.368"/></svg><svg x="1140"><use xlink:href="#a"/><use xlink:href="#b" x="-.004" y="2.146"/><use xlink:href="#3"/></svg><svg x="1200"><use xlink:href="#a"/><use xlink:href="#b" x="50.996" y="17.343"/><use xlink:href="#3"/><use xlink:href="#12" y="2.171"/><use xlink:href="#13" y="4.342"/><use xlink:href="#6" y="6.513"/><use xlink:href="#15" y="8.684"/><use xlink:href="#8" y="10.855"/><use xlink:href="#9" y="13.026"/><use xlink:href="#10" y="15.197"/><use xlink:href="#11" y="17.368"/></svg><svg x="1260"><use xlink:href="#a"/><use xlink:href="#b" x="-.004" y="17.343"/><use xlink:href="#3"/><use xlink:href="#12" y="2.171"/><use xlink:href="#13" y="4.342"/><use xlink:href="#6" y="6.513"/><use xlink:href="#15" y="8.684"/><use xlink:href="#8" y="10.855"/><use xlink:href="#9" y="13.026"/><use xlink:href="#10" y="15.197"/><use xlink:href="#11" y="17.368"/></svg><svg x="1320"><use xlink:href="#a"/><use xlink:href="#b" x="50.996" y="17.343"/><use xlink:href="#3"/><use xlink:href="#12" y="2.171"/><use xlink:href="#13" y="4.342"/><use xlink:href="#6" y="6.513"/><use xlink:href="#15" y="8.684"/><use xlink:href="#8" y="10.855"/><use xlink:href="#9" y="13.026"/><use xlink:href="#10" y="15.197"/><use xlink:href="#11" y="17.368"/></svg><svg x="1380"><use xlink:href="#a"/><use xlink:href="#b" x="-.004" y="2.146"/><use xlink:href="#3"/></svg><svg x="1440"><use xlink:href="#a"/><use xlink:href="#b" x="50.996" y="17.343"/><use xlink:href="#3"/><use xlink:href="#12" y="2.171"/><use xlink:href="#13" y="4.342"/><use xlink:href="#6" y="6.513"/><use xlink:href="#7" y="8.684"/><use xlink:href="#16" y="10.855"/><use xlink:href="#9" y="13.026"/><use xlink:href="#10" y="15.197"/><use xlink:href="#11" y="17.368"/></svg><svg x="1500"><use xlink:href="#a"/><use xlink:href="#b" x="50.996" y="17.343"/><use xlink:href="#3"/><use xlink:href="#12" y="2.171"/><use xlink:href="#13" y="4.342"/><use xlink:href="#6" y="6.513"/><use xlink:href="#7" y="8.684"/><use xlink:href="#16" y="10.855"/><use xlink:href="#9" y="13.026"/><use xlink:href="#10" y="15.197"/><use xlink:href="#11" y="17.368"/></svg><svg x="1560"><use xlink:href="#a"/><use xlink:href="#b" x="-.004" y="2.146"/><use xlink:href="#3"/></svg><svg x="1620"><use xlink:href="#a"/><use xlink:href="#b" x="50.996" y="17.343"/><use xlink:href="#3"/><use xlink:href="#12" y="2.171"/><use xlink:href="#13" y="4.342"/><use xlink:href="#6" y="6.513"/><use xlink:href="#15" y="8.684"/><use xlink:href="#8" y="10.855"/><use xlink:href="#9" y="13.026"/><use xlink:href="#10" y="15.197"/><use xlink:href="#11" y="17.368"/></svg><svg x="1680"><use xlink:href="#a"/><use xlink:href="#b" x="-.004" y="17.343"/><use xlink:href="#3"/><use xlink:href="#12" y="2.171"/><use xlink:href="#13" y="4.342"/><use xlink:href="#6" y="6.513"/><use xlink:href="#15" y="8.684"/><use xlink:href="#8" y="10.855"/><use xlink:href="#9" y="13.026"/><use xlink:href="#10" y="15.197"/><use xlink:href="#11" y="17.368"/></svg><svg x="1740"><use xlink:href="#a"/><use xlink:href="#b" x="50.996" y="17.343"/><use xlink:href="#3"/><use xlink:href="#12" y="2.171"/><use xlink:href="#13" y="4.342"/><use xlink:href="#6" y="6.513"/><use xlink:href="#15" y="8.684"/><use xlink:href="#8" y="10.855"/><use xlink:href="#9" y="13.026"/><use xlink:href="#10" y="15.197"/><use xlink:href="#11" y="17.368"/></svg><svg x="1800"><use xlink:href="#a"/><use xlink:href="#b" x="-.004" y="2.146"/><use xlink:href="#3"/></svg><svg x="1860"><use xlink:href="#a"/><use xlink:href="#b" x="50.996" y="17.343"/><use xlink:href="#3"/><use xlink:href="#12" y="2.171"/><use xlink:href="#13" y="4.342"/><use xlink:href="#14" y="6.513"/><use xlink:href="#7" y="8.684"/><use xlink:href="#8" y="10.855"/><use xlink:href="#9" y="13.026"/><use xlink:href="#10" y="15.197"/><use xlink:href="#11" y="17.368"/></svg><svg x="1920"><use xlink:href="#a"/><use xlink:href="#b" x="-.004" y="17.343"/><use xlink:href="#3"/><use xlink:href="#12" y="2.171"/><use xlink:href="#13" y="4.342"/><use xlink:href="#14" y="6.513"/><use xlink:href="#7" y="8.684"/><use xlink:href="#8" y="10.855"/><use xlink:href="#9" y="13.026"/><use xlink:href="#10" y="15.197"/><use xlink:href="#11" y="17.368"/></svg><svg x="1980"><use xlink:href="#a"/><use xlink:href="#b" x="50.996" y="17.343"/><use xlink:href="#3"/><use xlink:href="#12" y="2.171"/><use xlink:href="#13" y="4.342"/><use xlink:href="#14" y="6.513"/><use xlink:href="#7" y="8.684"/><use xlink:href="#8" y="10.855"/><use xlink:href="#9" y="13.026"/><use xlink:href="#10" y="15.197"/><use xlink:href="#11" y="17.368"/></svg><svg x="2040"><use xlink:href="#a"/><use xlink:href="#b" x="-.004" y="2.146"/><use xlink:href="#3"/></svg><svg x="2100"><use xlink:href="#a"/><use xlink:href="#b" x="50.996" y="17.343"/><use xlink:href="#3"/><use xlink:href="#12" y="2.171"/><use xlink:href="#5" y="4.342"/><use xlink:href="#6" y="6.513"/><use xlink:href="#7" y="8.684"/><use xlink:href="#8" y="10.855"/><use xlink:href="#9" y="13.026"/><use xlink:href="#10" y="15.197"/><use xlink:href="#11" y="17.368"/></svg><svg x="2160"><use xlink:href="#a"/><use xlink:href="#b" x="50.996" y="17.343"/><use xlink:href="#3"/><use xlink:href="#12" y="2.171"/><use xlink:href="#5" y="4.342"/><use xlink:href="#6" y="6.513"/><use xlink:href="#7" y="8.684"/><use xlink:href="#8" y="10.855"/><use xlink:href="#9" y="13.026"/><use xlink:href="#10" y="15.197"/><use xlink:href="#11" y="17.368"/></svg><svg x="2220"><use xlink:href="#a"/><use xlink:href="#b" x="-.004" y="2.146"/><use xlink:href="#3"/></svg><svg x="2280"><use xlink:href="#a"/><use xlink:href="#b" x="24.996" y="4.317"/><use xlink:href="#3"/><use xlink:href="#17" y="2.171"/><use xlink:href="#18" y="4.342"/></svg><svg x="2340"><use xlink:href="#a"/><use xlink:href="#b" x="-.004" y="4.317"/><use xlink:href="#3"/><use xlink:href="#17" y="2.171"/><use xlink:href="#18" y="4.342"/></svg><svg x="2400"><use xlink:href="#a"/><use xlink:href="#b" x="-.004" y="6.488"/><use xlink:href="#3"/><use xlink:href="#17" y="2.171"/><use xlink:href="#18" y="4.342"/></svg><svg x="2460"><use xlink:href="#a"/><use xlink:href="#b" x="-.004" y="6.488"/><use xlink:href="#3"/><use xlink:href="#17" y="2.171"/><use xlink:href="#18" y="4.342"/></svg><svg x="2520"><use xlink:href="#a"/><use xlink:href="#b" x=".996" y="32.54"/><use xlink:href="#18"/><use xlink:href="#19" y="2.171"/><use xlink:href="#20" y="4.342"/><use xlink:href="#21" y="6.513"/><use xlink:href="#22" y="8.684"/><use xlink:href="#23" y="10.855"/><use xlink:href="#24" y="13.026"/><use xlink:href="#25" y="17.368"/><use xlink:href="#26" y="19.539"/><use xlink:href="#27" y="21.71"/><use xlink:href="#28" y="23.881"/><use xlink:href="#29" y="26.052"/><use xlink:href="#30" y="30.394"/><use xlink:href="#31" y="32.565"/></svg><svg x="2580"><use xlink:href="#a"/><use xlink:href="#b" x="-.004" y="32.54"/><use xlink:href="#18"/><use xlink:href="#19" y="2.171"/><use xlink:href="#20" y="4.342"/><use xlink:href="#21" y="6.513"/><use xlink:href="#22" y="8.684"/><use xlink:href="#23" y="10.855"/><use xlink:href="#24" y="13.026"/><use xlink:href="#25" y="17.368"/><use xlink:href="#26" y="19.539"/><use xlink:href="#27" y="21.71"/><use xlink:href="#28" y="23.881"/><use xlink:href="#29" y="26.052"/><use xlink:href="#30" y="30.394"/></svg><svg x="2640"><use xlink:href="#a"/><use xlink:href="#b" x=".996" y="32.54"/><use xlink:href="#25"/><use xlink:href="#26" y="2.171"/><use xlink:href="#27" y="4.342"/><use xlink:href="#28" y="6.513"/><use xlink:href="#29" y="8.684"/><use xlink:href="#30" y="13.026"/><use xlink:href="#32" y="15.197"/><use xlink:href="#33" y="17.368"/><use xlink:href="#34" y="19.539"/><use xlink:href="#35" y="21.71"/><use xlink:href="#35" y="23.881"/><use xlink:href="#36" y="26.052"/><use xlink:href="#37" y="28.223"/><use xlink:href="#38" y="30.394"/><use xlink:href="#31" y="32.565"/></svg><svg x="2700"><use xlink:href="#a"/><use xlink:href="#b" x="-.004" y="32.54"/><use xlink:href="#25"/><use xlink:href="#26" y="2.171"/><use xlink:href="#27" y="4.342"/><use xlink:href="#28" y="6.513"/><use xlink:href="#29" y="8.684"/><use xlink:href="#30" y="13.026"/><use xlink:href="#32" y="15.197"/><use xlink:href="#33" y="17.368"/><use xlink:href="#34" y="19.539"/><use xlink:href="#35" y="21.71"/><use xlink:href="#35" y="23.881"/><use xlink:href="#36" y="26.052"/><use xlink:href="#37" y="28.223"/><use xlink:href="#38" y="30.394"/></svg><svg x="2760"><use xlink:href="#a"/><use xlink:href="#b" x=".996" y="32.54"/><use xlink:href="#33"/><use xlink:href="#34" y="2.171"/><use xlink:href="#35" y="4.342"/><use xlink:href="#35" y="6.513"/><use xlink:href="#36" y="8.684"/><use xlink:href="#37" y="10.855"/><use xlink:href="#38" y="13.026"/><use xlink:href="#39" y="15.197"/><use xlink:href="#40" y="17.368"/><use xlink:href="#41" y="19.539"/><use xlink:href="#42" y="21.71"/><use xlink:href="#36" y="23.881"/><use xlink:href="#43" y="26.052"/><use xlink:href="#43" y="28.223"/><use xlink:href="#31" y="32.565"/></svg><svg x="2820"><use xlink:href="#a"/><use xlink:href="#b" x="-.004" y="32.54"/><use xlink:href="#33"/><use xlink:href="#34" y="2.171"/><use xlink:href="#35" y="4.342"/><use xlink:href="#35" y="6.513"/><use xlink:href="#36" y="8.684"/><use xlink:href="#37" y="10.855"/><use xlink:href="#38" y="13.026"/><use xlink:href="#39" y="15.197"/><use xlink:href="#40" y="17.368"/><use xlink:href="#41" y="19.539"/><use xlink:href="#42" y="21.71"/><use xlink:href="#36" y="23.881"/><use xlink:href="#43" y="26.052"/><use xlink:href="#43" y="28.223"/></svg><svg x="2880"><use xlink:href="#a"/><use xlink:href="#b" x="9.996" y="32.54"/><use xlink:href="#33"/><use xlink:href="#34" y="2.171"/><use xlink:href="#35" y="4.342"/><use xlink:href="#35" y="6.513"/><use xlink:href="#36" y="8.684"/><use xlink:href="#37" y="10.855"/><use xlink:href="#38" y="13.026"/><use xlink:href="#39" y="15.197"/><use xlink:href="#40" y="17.368"/><use xlink:href="#41" y="19.539"/><use xlink:href="#42" y="21.71"/><use xlink:href="#36" y="23.881"/><use xlink:href="#43" y="26.052"/><use xlink:href="#43" y="28.223"/><use xlink:href="#1" y="32.565"/></svg><svg x="2940"><use xlink:href="#a"/><use xlink:href="#b" x="-.004" y="32.54"/><use xlink:href="#34"/><use xlink:href="#35" y="2.171"/><use xlink:href="#35" y="4.342"/><use xlink:href="#36" y="6.513"/><use xlink:href="#37" y="8.684"/><use xlink:href="#38" y="10.855"/><use xlink:href="#39" y="13.026"/><use xlink:href="#40" y="15.197"/><use xlink:href="#41" y="17.368"/><use xlink:href="#42" y="19.539"/><use xlink:href="#36" y="21.71"/><use xlink:href="#43" y="23.881"/><use xlink:href="#43" y="26.052"/><use xlink:href="#1" y="30.394"/></svg><svg x="3000"><use xlink:href="#a"/><use xlink:href="#b" x="9.996" y="32.54"/><use xlink:href="#34"/><use xlink:href="#35" y="2.171"/><use xlink:href="#35" y="4.342"/><use xlink:href="#36" y="6.513"/><use xlink:href="#37" y="8.684"/><use xlink:href="#38" y="10.855"/><use xlink:href="#39" y="13.026"/><use xlink:href="#40" y="15.197"/><use xlink:href="#41" y="17.368"/><use xlink:href="#42" y="19.539"/><use xlink:href="#36" y="21.71"/><use xlink:href="#43" y="23.881"/><use xlink:href="#43" y="26.052"/><use xlink:href="#1" y="30.394"/><use xlink:href="#1" y="32.565"/></svg></svg></g></g></svg></svg>